<svg width="1920" height="1081" viewBox="0 0 1920 1081" fill="none" xmlns="http://www.w3.org/2000/svg">
<rect width="1920" height="1080" fill="white"/>
<path d="M0.0114186 706C0.178045 706 0.344732 706 0.511419 706C204.581 706.006 370.006 873.233 370 1079.51C370 1079.68 370 1079.84 370 1080.01L185.249 1080.01C185.25 1079.84 185.25 1079.67 185.25 1079.51C185.253 976.366 102.54 892.753 0.505737 892.75C0.33902 892.75 0.172363 892.75 0.0057373 892.751L0.0114186 706Z" fill="#FFF736"/>
<path d="M1920 374C1919.83 374 1919.67 374 1919.5 374C1715.43 374 1550 206.778 1550 0.5C1550 0.333308 1550 0.166641 1550 0L1734.75 0C1734.75 0.166615 1734.75 0.333282 1734.75 0.5C1734.75 103.639 1817.47 187.25 1919.5 187.25C1919.67 187.25 1919.83 187.25 1920 187.249V374Z" fill="#6470E0"/>
</svg>
